# xmcd CD database file generated by Grip 2.95
# 
# Track frame offsets:
#       150
#       26822
#       53062
#       74601
#       95943
#       118450
#       145212
#       165067
#       189879
#       210743
#       232850
#       254822
#       283379
# 
# Disc length: 4469 seconds
# 
# Revision: 3
# Processed by: cddbd v1.4b41PL1 Copyright (c) Steve Scherf et al.
# Submitted via: Grip 2.95
# 
DISCID=ca11730d
DTITLE=Santana - Supernatural
DYEAR=1900
DGENRE=
TTITLE0=Da le yaleo
TTITLE1=Love of my life
TTITLE2=Put your lights on
TTITLE3=Africa bamba
TTITLE4=Smooth
TTITLE5=Do you like the way
TTITLE6=Maria Maria
TTITLE7=Migra
TTITLE8=Corazon espinado
TTITLE9=Wishing it was
TTITLE10=El farol
TTITLE11=Primavera
TTITLE12=The calling
EXTD=
EXTT0=
EXTT1=
EXTT2=
EXTT3=
EXTT4=
EXTT5=
EXTT6=
EXTT7=
EXTT8=
EXTT9=
EXTT10=
EXTT11=
EXTT12=
PLAYORDER=
